# xmcd CD database file
#
# Track frame offsets:
#	150
#	21385
#	53222
#	84567
#	98732
#	118615
#	141235
#	167527
#
# Disc length: 2592 seconds
#
# Revision: 1
# Processed by: cddbd v1.5.1PL0 Copyright (c) Steve Scherf et al.
# Submitted via: CDex 1.51
#
DISCID=640a1e08
DTITLE=溝口肇 - アクアカラーズ・イン・パリ
DYEAR=1995
DGENRE=New Age
TTITLE0=太陽の祈り
TTITLE1=シャドウズ・アンド・ライト
TTITLE2=車窓の人
TTITLE3=パリの空の下
TTITLE4=イン・ア・リトル・ホワイル
TTITLE5=ソー・ロング
TTITLE6=ビハインド・ザ・シーンズ
TTITLE7=ライト・イン・パリス
EXTD=YEAR: 1995
EXTT0=
EXTT1=
EXTT2=
EXTT3=
EXTT4=
EXTT5=
EXTT6=
EXTT7=
PLAYORDER=
